<?xml version="1.0" encoding="UTF-8"?> <svg xmlns="http://www.w3.org/2000/svg" xmlns:xlink="http://www.w3.org/1999/xlink" width="540px" height="540px" viewBox="0 0 540 540" version="1.1"><!-- Generator: Sketch 59.1 (86144) - https://sketch.com --><title>brand-monitoring</title><desc>Created with Sketch.</desc><defs><polygon id="path-1" points="0 358.492938 429.592845 358.492938 429.592845 0.393987288 0 0.393987288"></polygon><path d="M68.9989853,0.392974359 C31.0550735,0.392974359 0.295279412,31.0956154 0.295279412,68.9690256 L0.295279412,68.9690256 C0.295279412,126.815256 50.7713162,157.604494 68.9989853,157.604494 L68.9989853,157.604494 L68.9989853,137.544571 C106.94239,137.544571 137.702184,106.842436 137.702184,68.9690256 L137.702184,68.9690256 C137.702184,31.0956154 106.94239,0.392974359 68.9989853,0.392974359 Z" id="path-3"></path><path d="M68.9989853,0.392974359 C31.0550735,0.392974359 0.295279412,31.0956154 0.295279412,68.9690256 L0.295279412,68.9690256 C0.295279412,126.815256 50.7713162,157.604494 68.9989853,157.604494 L68.9989853,157.604494 L68.9989853,137.544571 C106.94239,137.544571 137.702184,106.842436 137.702184,68.9690256 L137.702184,68.9690256 C137.702184,31.0956154 106.94239,0.392974359 68.9989853,0.392974359 Z" id="path-5"></path><path d="M68.9989853,0.392974359 C31.0550735,0.392974359 0.295279412,31.0956154 0.295279412,68.9690256 L0.295279412,68.9690256 C0.295279412,126.815256 50.7713162,157.604494 68.9989853,157.604494 L68.9989853,157.604494 L68.9989853,137.544571 C106.94239,137.544571 137.702184,106.842436 137.702184,68.9690256 L137.702184,68.9690256 C137.702184,31.0956154 106.94239,0.392974359 68.9989853,0.392974359 Z" id="path-7"></path><path d="M68.9989853,0.392974359 C31.0550735,0.392974359 0.295279412,31.0956154 0.295279412,68.9690256 L0.295279412,68.9690256 C0.295279412,126.815256 50.7713162,157.604494 68.9989853,157.604494 L68.9989853,157.604494 L68.9989853,137.544571 C106.94239,137.544571 137.702184,106.842436 137.702184,68.9690256 L137.702184,68.9690256 C137.702184,31.0956154 106.94239,0.392974359 68.9989853,0.392974359 Z" id="path-9"></path><path d="M68.9989853,0.392974359 C31.0550735,0.392974359 0.295279412,31.0956154 0.295279412,68.9690256 L0.295279412,68.9690256 C0.295279412,126.815256 50.7713162,157.604494 68.9989853,157.604494 L68.9989853,157.604494 L68.9989853,137.544571 C106.94239,137.544571 137.702184,106.842436 137.702184,68.9690256 L137.702184,68.9690256" id="path-11"></path><path d="M68.9989853,0.392974359 C31.0550735,0.392974359 0.295279412,31.0956154 0.295279412,68.9690256 L0.295279412,68.9690256 C0.295279412,126.815256 50.7713162,157.604494 68.9989853,157.604494 L68.9989853,157.604494 L68.9989853,137.544571 C106.94239,137.544571 137.702184,106.842436 137.702184,68.9690256 L137.702184,68.9690256" id="path-13"></path><path d="M68.9989853,0.392974359 C31.0550735,0.392974359 0.295279412,31.0956154 0.295279412,68.9690256 L0.295279412,68.9690256 C0.295279412,126.815256 50.7713162,157.604494 68.9989853,157.604494 L68.9989853,157.604494 L68.9989853,137.544571 C106.94239,137.544571 137.702184,106.842436 137.702184,68.9690256 L137.702184,68.9690256" id="path-15"></path><path d="M68.9989853,0.392974359 C31.0550735,0.392974359 0.295279412,31.0956154 0.295279412,68.9690256 L0.295279412,68.9690256 C0.295279412,126.815256 50.7713162,157.604494 68.9989853,157.604494 L68.9989853,157.604494 L68.9989853,137.544571 C106.94239,137.544571 137.702184,106.842436 137.702184,68.9690256 L137.702184,68.9690256" id="path-17"></path><polygon id="path-19" points="0.140346667 0.174669528 151.593653 0.174669528 151.593653 118.704798 0.140346667 118.704798"></polygon><path d="M4.31832,0.174669528 C2.01096,0.174669528 0.140346667,2.05977253 0.140346667,4.38563519 L0.140346667,4.38563519 L0.140346667,91.9119227 C0.140346667,94.2372747 2.01096,96.1228884 4.31832,96.1228884 L4.31832,96.1228884 L27.7253067,96.1228884 L27.7253067,118.704798 L53.28208,96.1228884 L147.41568,96.1228884 C149.72304,96.1228884 151.593653,94.2372747 151.593653,91.9119227 L151.593653,91.9119227 L151.593653,4.38563519 C151.593653,2.05977253 149.72304,0.174669528 147.41568,0.174669528 L147.41568,0.174669528" id="path-21"></path><path d="M4.31832,0.174669528 C2.01096,0.174669528 0.140346667,2.05977253 0.140346667,4.38563519 L0.140346667,4.38563519 L0.140346667,91.9119227 C0.140346667,94.2372747 2.01096,96.1228884 4.31832,96.1228884 L4.31832,96.1228884 L27.7253067,96.1228884 L27.7253067,118.704798 L53.28208,96.1228884 L147.41568,96.1228884 C149.72304,96.1228884 151.593653,94.2372747 151.593653,91.9119227 L151.593653,91.9119227 L151.593653,4.38563519 C151.593653,2.05977253 149.72304,0.174669528 147.41568,0.174669528 L147.41568,0.174669528" id="path-23"></path><path d="M4.31832,0.174669528 C2.01096,0.174669528 0.140346667,2.05977253 0.140346667,4.38563519 L0.140346667,4.38563519 L0.140346667,91.9119227 C0.140346667,94.2372747 2.01096,96.1228884 4.31832,96.1228884 L4.31832,96.1228884 L27.7253067,96.1228884 L27.7253067,118.704798 L53.28208,96.1228884 L147.41568,96.1228884 C149.72304,96.1228884 151.593653,94.2372747 151.593653,91.9119227 L151.593653,91.9119227 L151.593653,4.38563519 C151.593653,2.05977253 149.72304,0.174669528 147.41568,0.174669528 L147.41568,0.174669528" id="path-25"></path><path d="M4.31832,0.174669528 C2.01096,0.174669528 0.140346667,2.05977253 0.140346667,4.38563519 L0.140346667,4.38563519 L0.140346667,91.9119227 C0.140346667,94.2372747 2.01096,96.1228884 4.31832,96.1228884 L4.31832,96.1228884 L27.7253067,96.1228884 L27.7253067,118.704798 L53.28208,96.1228884 L147.41568,96.1228884 C149.72304,96.1228884 151.593653,94.2372747 151.593653,91.9119227 L151.593653,91.9119227 L151.593653,4.38563519 C151.593653,2.05977253 149.72304,0.174669528 147.41568,0.174669528 L147.41568,0.174669528 L4.31832,0.174669528 Z" id="path-27"></path><path d="M4.31832,0.174669528 C2.01096,0.174669528 0.140346667,2.05977253 0.140346667,4.38563519 L0.140346667,4.38563519 L0.140346667,91.9119227 C0.140346667,94.2372747 2.01096,96.1228884 4.31832,96.1228884 L4.31832,96.1228884 L27.7253067,96.1228884 L27.7253067,118.704798 L53.28208,96.1228884 L147.41568,96.1228884 C149.72304,96.1228884 151.593653,94.2372747 151.593653,91.9119227 L151.593653,91.9119227 L151.593653,4.38563519 C151.593653,2.05977253 149.72304,0.174669528 147.41568,0.174669528 L147.41568,0.174669528" id="path-29"></path><path d="M4.31832,0.174669528 C2.01096,0.174669528 0.140346667,2.05977253 0.140346667,4.38563519 L0.140346667,4.38563519 L0.140346667,91.9119227 C0.140346667,94.2372747 2.01096,96.1228884 4.31832,96.1228884 L4.31832,96.1228884 L27.7253067,96.1228884 L27.7253067,118.704798 L53.28208,96.1228884 L147.41568,96.1228884 C149.72304,96.1228884 151.593653,94.2372747 151.593653,91.9119227 L151.593653,91.9119227 L151.593653,4.38563519 C151.593653,2.05977253 149.72304,0.174669528 147.41568,0.174669528 L147.41568,0.174669528" id="path-31"></path><path d="M4.31832,0.174669528 C2.01096,0.174669528 0.140346667,2.05977253 0.140346667,4.38563519 L0.140346667,4.38563519 L0.140346667,91.9119227 C0.140346667,94.2372747 2.01096,96.1228884 4.31832,96.1228884 L4.31832,96.1228884 L27.7253067,96.1228884 L27.7253067,118.704798 L53.28208,96.1228884 L147.41568,96.1228884 C149.72304,96.1228884 151.593653,94.2372747 151.593653,91.9119227 L151.593653,91.9119227 L151.593653,4.38563519 C151.593653,2.05977253 149.72304,0.174669528 147.41568,0.174669528 L147.41568,0.174669528" id="path-33"></path><path d="M4.31832,0.174669528 C2.01096,0.174669528 0.140346667,2.05977253 0.140346667,4.38563519 L0.140346667,4.38563519 L0.140346667,91.9119227 C0.140346667,94.2372747 2.01096,96.1228884 4.31832,96.1228884 L4.31832,96.1228884 L27.7253067,96.1228884 L27.7253067,118.704798 L53.28208,96.1228884 L147.41568,96.1228884 C149.72304,96.1228884 151.593653,94.2372747 151.593653,91.9119227 L151.593653,91.9119227 L151.593653,4.38563519 C151.593653,2.05977253 149.72304,0.174669528 147.41568,0.174669528 L147.41568,0.174669528" id="path-35"></path><path d="M4.31832,0.174669528 C2.01096,0.174669528 0.140346667,2.05977253 0.140346667,4.38563519 L0.140346667,4.38563519 L0.140346667,91.9119227 C0.140346667,94.2372747 2.01096,96.1228884 4.31832,96.1228884 L4.31832,96.1228884 L27.7253067,96.1228884 L27.7253067,118.704798 L53.28208,96.1228884 L147.41568,96.1228884 C149.72304,96.1228884 151.593653,94.2372747 151.593653,91.9119227 L151.593653,91.9119227 L151.593653,4.38563519 C151.593653,2.05977253 149.72304,0.174669528 147.41568,0.174669528 L147.41568,0.174669528 L4.31832,0.174669528 Z" id="path-37"></path><path d="M4.31832,0.174669528 C2.01096,0.174669528 0.140346667,2.05977253 0.140346667,4.38563519 L0.140346667,4.38563519 L0.140346667,91.9119227 C0.140346667,94.2372747 2.01096,96.1228884 4.31832,96.1228884 L4.31832,96.1228884 L27.7253067,96.1228884 L27.7253067,118.704798 L53.28208,96.1228884 L147.41568,96.1228884 C149.72304,96.1228884 151.593653,94.2372747 151.593653,91.9119227 L151.593653,91.9119227 L151.593653,4.38563519 C151.593653,2.05977253 149.72304,0.174669528 147.41568,0.174669528 L147.41568,0.174669528" id="path-39"></path><polygon id="path-41" points="0 358.492938 429.592845 358.492938 429.592845 0.393987288 0 0.393987288"></polygon><path d="M4.02517536,0.176576577 C1.80221801,0.176576577 0,1.95293694 0,4.144 L0,4.144 L0,86.6032432 C0,88.7943063 1.80221801,90.5706667 4.02517536,90.5706667 L4.02517536,90.5706667 L56.5740853,90.5706667 L81.1980853,111.845117 L81.1980853,90.5706667 L103.750123,90.5706667 C105.973081,90.5706667 107.775299,88.7943063 107.775299,86.6032432 L107.775299,86.6032432 L107.775299,4.144 C107.775299,1.95293694 105.973081,0.176576577 103.750123,0.176576577 L103.750123,0.176576577 L4.02517536,0.176576577 Z" id="path-43"></path><path d="M0.440477612,50.5973684 C0.440477612,78.4073509 23.065194,100.952561 50.9736119,100.952561 L50.9736119,100.952561 L50.9736119,115.682018 C64.3807761,115.682018 101.506746,93.0737193 101.506746,50.5973684 L101.506746,50.5973684 C101.506746,22.7868772 78.8825373,0.242175439 50.9736119,0.242175439 L50.9736119,0.242175439 C23.065194,0.242175439 0.440477612,22.7868772 0.440477612,50.5973684" id="path-45"></path><path d="M0.440477612,50.5973684 C0.440477612,78.4073509 23.065194,100.952561 50.9736119,100.952561 L50.9736119,100.952561 L50.9736119,115.682018 C64.3807761,115.682018 101.506746,93.0737193 101.506746,50.5973684 L101.506746,50.5973684 C101.506746,22.7868772 78.8825373,0.242175439 50.9736119,0.242175439 L50.9736119,0.242175439 C23.065194,0.242175439 0.440477612,22.7868772 0.440477612,50.5973684" id="path-47"></path><path d="M0.440477612,50.5973684 C0.440477612,78.4073509 23.065194,100.952561 50.9736119,100.952561 L50.9736119,100.952561 L50.9736119,115.682018 C64.3807761,115.682018 101.506746,93.0737193 101.506746,50.5973684 L101.506746,50.5973684 C101.506746,22.7868772 78.8825373,0.242175439 50.9736119,0.242175439 L50.9736119,0.242175439 C23.065194,0.242175439 0.440477612,22.7868772 0.440477612,50.5973684" id="path-49"></path><path d="M0.440477612,50.5973684 C0.440477612,78.4073509 23.065194,100.952561 50.9736119,100.952561 L50.9736119,100.952561 L50.9736119,115.682018 C64.3807761,115.682018 101.506746,93.0737193 101.506746,50.5973684 L101.506746,50.5973684 C101.506746,22.7868772 78.8825373,0.242175439 50.9736119,0.242175439 L50.9736119,0.242175439 C23.065194,0.242175439 0.440477612,22.7868772 0.440477612,50.5973684" id="path-51"></path><path d="M0.440477612,50.5973684 C0.440477612,78.4073509 23.065194,100.952561 50.9736119,100.952561 L50.9736119,100.952561 L50.9736119,115.682018 C64.3807761,115.682018 101.506746,93.0737193 101.506746,50.5973684 L101.506746,50.5973684 C101.506746,22.7868772 78.8825373,0.242175439 50.9736119,0.242175439 L50.9736119,0.242175439 C23.065194,0.242175439 0.440477612,22.7868772 0.440477612,50.5973684" id="path-53"></path><path d="M0.440477612,50.5973684 C0.440477612,78.4073509 23.065194,100.952561 50.9736119,100.952561 L50.9736119,100.952561 L50.9736119,115.682018 C64.3807761,115.682018 101.506746,93.0737193 101.506746,50.5973684 L101.506746,50.5973684 C101.506746,22.7868772 78.8825373,0.242175439 50.9736119,0.242175439 L50.9736119,0.242175439 C23.065194,0.242175439 0.440477612,22.7868772 0.440477612,50.5973684" id="path-55"></path><path d="M0.440477612,50.5973684 C0.440477612,78.4073509 23.065194,100.952561 50.9736119,100.952561 L50.9736119,100.952561 L50.9736119,115.682018 C64.3807761,115.682018 101.506746,93.0737193 101.506746,50.5973684 L101.506746,50.5973684 C101.506746,22.7868772 78.8825373,0.242175439 50.9736119,0.242175439 L50.9736119,0.242175439 C23.065194,0.242175439 0.440477612,22.7868772 0.440477612,50.5973684 L0.440477612,50.5973684 Z" id="path-57"></path></defs><g id="brand-monitoring" stroke="none" stroke-width="1" fill="none" fill-rule="evenodd"><rect id="background" fill="#FAC6A6" x="0" y="0" width="540" height="540"></rect><g id="Group-130" transform="translate(55.000000, 91.000000)"><g id="Group-13"><path d="M368.496851,192.643102 C368.496851,280.839463 296.913782,352.336747 208.610464,352.336747 C120.307654,352.336747 48.7245844,280.839463 48.7245844,192.643102 C48.7245844,104.44674 120.307654,32.9494561 208.610464,32.9494561 C296.913782,32.9494561 368.496851,104.44674 368.496851,192.643102" id="Fill-1" fill="#FCBB47"></path><mask id="mask-2" fill="white"><use xlink:href="#path-1"></use></mask><g id="Clip-4"></g><polygon id="Fill-3" fill="#EEECF2" mask="url(#mask-2)" points="124.446671 324.084208 292.46549 324.084208 292.46549 93.2862514 124.446671 93.2862514"></polygon><path d="M272.240311,58.8779775 L144.672459,58.8779775 C133.502105,58.8779775 124.446721,67.9224451 124.446721,79.0788264 L124.446721,93.2862007 L292.465541,93.2862007 L292.465541,79.0788264 C292.465541,67.9224451 283.410665,58.8779775 272.240311,58.8779775" id="Fill-5" fill="#BBB1CC" mask="url(#mask-2)"></path><path d="M144.672256,358.492887 L272.240107,358.492887 C283.410462,358.492887 292.465845,349.44842 292.465845,338.292038 L292.465845,324.084664 L124.447026,324.084664 L124.447026,338.292038 C124.447026,349.44842 133.501902,358.492887 144.672256,358.492887" id="Fill-6" fill="#BBB1CC" mask="url(#mask-2)"></path><path d="M225.871385,79.1004273 L191.041385,79.1004273 C190.061066,79.1004273 189.267064,78.3073821 189.267064,77.3282451 L189.267064,74.8360346 C189.267064,73.8574047 190.061066,73.0638524 191.041385,73.0638524 L225.871385,73.0638524 C226.851196,73.0638524 227.645706,73.8574047 227.645706,74.8360346 L227.645706,77.3282451 C227.645706,78.3073821 226.851196,79.1004273 225.871385,79.1004273" id="Fill-7" fill="#DDD8E6" mask="url(#mask-2)"></path><path d="M247.169178,76.0821905 C247.169178,78.3325323 245.342567,80.1569419 243.089509,80.1569419 C240.836451,80.1569419 239.009839,78.3325323 239.009839,76.0821905 C239.009839,73.8318487 240.836451,72.0074391 243.089509,72.0074391 C245.342567,72.0074391 247.169178,73.8318487 247.169178,76.0821905" id="Fill-8" fill="#DDD8E6" mask="url(#mask-2)"></path><path d="M293.588617,110.232877 L292.465642,110.232877 L292.465642,132.976642 L293.588617,132.976642 C294.470447,132.976642 295.18576,132.262192 295.18576,131.381425 L295.18576,111.827587 C295.18576,110.94682 294.470447,110.232877 293.588617,110.232877" id="Fill-9" fill="#BBB1CC" mask="url(#mask-2)"></path><path d="M293.588617,143.090301 L292.465642,143.090301 L292.465642,165.834067 L293.588617,165.834067 C294.470447,165.834067 295.18576,165.119616 295.18576,164.238849 L295.18576,144.685012 C295.18576,143.804245 294.470447,143.090301 293.588617,143.090301" id="Fill-10" fill="#BBB1CC" mask="url(#mask-2)"></path><path d="M217.211429,341.288674 C217.211429,336.459414 213.291677,332.54388 208.45608,332.54388 C203.620992,332.54388 199.70124,336.459414 199.70124,341.288674 C199.70124,346.118441 203.620992,350.033468 208.45608,350.033468 C213.291677,350.033468 217.211429,346.118441 217.211429,341.288674" id="Fill-11" fill="#988BB3" mask="url(#mask-2)"></path><path d="M93.4108241,137.721831 C131.378758,137.721831 162.157518,106.980175 162.157518,69.0575037 C162.157518,31.1358469 131.378758,0.393683051 93.4108241,0.393683051 C55.4428902,0.393683051 24.6636222,31.1358469 24.6636222,69.0575037 C24.6636222,126.978706 75.1716151,157.80707 93.4108241,157.80707 L93.4108241,137.721831 Z" id="Fill-12" fill="#FFFFFF" mask="url(#mask-2)"></path></g><g id="Group-38" transform="translate(24.000000, 0.000000)"><g id="Group-16"><mask id="mask-4" fill="white"><use xlink:href="#path-3"></use></mask><g id="Clip-15"></g><path d="M50.4729926,107.986619 L50.4729926,107.833683 L20.3164412,121.308754 C13.0369412,124.561933 8.35102941,131.779799 8.35102941,139.741074 L8.35102941,218.291382 L129.714926,218.291382 L129.714926,139.741074 C129.714926,131.779799 125.029015,124.561933 117.749515,121.308754 L87.5929632,107.833683 L87.5929632,107.986619 L50.4729926,107.986619 Z" id="Fill-14" fill="#ADA2C2" mask="url(#mask-4)"></path></g><g id="Group-19"><mask id="mask-6" fill="white"><use xlink:href="#path-5"></use></mask><g id="Clip-18"></g><path d="M50.8641618,107.986619 L50.5247426,107.681254 L20.3164412,121.308754 C13.0369412,124.561933 8.35102941,131.779799 8.35102941,139.741074 L8.35102941,218.291382 L129.714926,218.291382 L129.714926,139.741074 C129.714926,131.779799 125.029015,124.561933 117.749515,121.308754 L87.5929632,107.833683 L87.5929632,107.986619 L50.8641618,107.986619 Z" id="Fill-17" fill="#766499" mask="url(#mask-6)"></path></g><g id="Group-22"><mask id="mask-8" fill="white"><use xlink:href="#path-7"></use></mask><g id="Clip-21"></g><path d="M8.35102941,144.635378 C10.0922647,145.075448 11.9146765,145.310929 13.7928971,145.310929 C26.0028529,145.310929 35.9008015,135.431371 35.9008015,123.244102 C35.9008015,120.348448 35.3361176,117.585474 34.3203971,115.051397 L20.3164412,121.309108 C13.0369412,124.561781 8.35102941,131.780153 8.35102941,139.740922 L8.35102941,144.635378 Z" id="Fill-20" fill="#766499" mask="url(#mask-8)"></path></g><g id="Group-25"><mask id="mask-10" fill="white"><use xlink:href="#path-9"></use></mask><g id="Clip-24"></g><path d="M129.714673,144.635378 C127.973438,145.075448 126.151026,145.310929 124.272805,145.310929 C112.062849,145.310929 102.164901,135.431371 102.164901,123.244102 C102.164901,120.348448 102.729585,117.585474 103.745813,115.051397 L117.749261,121.309108 C125.028761,124.561781 129.714673,131.780153 129.714673,139.740922 L129.714673,144.635378 Z" id="Fill-23" fill="#766499" mask="url(#mask-10)"></path></g><g id="Group-28"><mask id="mask-12" fill="white"><use xlink:href="#path-11"></use></mask><g id="Clip-27"></g><path d="M78.0374779,104.179022 C71.6362059,106.966304 64.3293088,106.973394 58.1051029,103.811874 C54.4267941,101.943727 51.9772941,99.4835859 50.3395588,97.0224321 L50.3395588,105.054099 C50.3395588,115.285612 58.6489853,123.579599 68.8990368,123.579599 L68.8995441,123.579599 C79.1495956,123.579599 87.4590221,115.285612 87.4590221,105.054099 L87.4590221,97.1814449 C84.9526985,100.505015 81.3814412,102.723092 78.0374779,104.179022" id="Fill-26" fill="#8474A3" mask="url(#mask-12)"></path></g><g id="Group-31"><mask id="mask-14" fill="white"><use xlink:href="#path-13"></use></mask><g id="Clip-30"></g><path d="M97.0538272,68.8343205 L97.0538272,52.9998846 C97.0538272,49.7507564 96.3957904,46.5887308 95.1837243,43.6687692 C93.442489,39.4746795 90.5485478,35.7839615 86.732239,33.0883397 C76.0864522,25.5691603 61.8475919,25.5691603 51.2018051,33.0883397 C47.3860037,35.7839615 44.4915551,39.4746795 42.7503199,43.6687692 C41.5382537,46.5887308 40.8802169,49.7507564 40.8802169,52.9998846 L40.8802169,68.7867179 C40.8462243,68.7968462 40.8112169,68.8039359 40.7777316,68.8165962 C38.5945919,69.6359679 38.6260478,75.080891 40.8477463,80.9775321 C42.5346949,85.4536923 44.9984007,88.9008269 47.0425257,89.9445385 L47.048614,89.9445385 C47.0475993,90.0898782 46.9912831,101.140763 58.1048493,106.785212 C64.3295625,109.946731 71.6359522,109.939641 78.0377316,107.152865 C84.0422537,104.538269 90.7900478,99.4777115 90.7621434,89.9415 C92.8047463,88.8942436 95.2659154,85.4491346 96.9508346,80.9775321 C99.160864,75.1122885 99.2014522,69.6987628 97.0538272,68.8343205" id="Fill-29" fill="#988BB3" mask="url(#mask-14)"></path></g><g id="Group-34"><mask id="mask-16" fill="white"><use xlink:href="#path-15"></use></mask><g id="Clip-33"></g><path d="M37.6600985,56.3220372 C37.6600985,56.3220372 40.8802676,68.7680821 40.8802676,68.7680821 C40.8802676,68.7680821 52.0623265,53.4608192 69.0008118,48.0012103 C85.9398044,53.4608192 97.1218632,68.7680821 97.1218632,68.7680821 L97.0209,68.8166974 L100.298907,56.4861141 C100.855981,54.3910949 101.150753,52.2069474 101.150753,49.9615244 C101.150753,34.2693897 86.7566426,21.5483641 69.0008118,21.5483641 C51.2454882,21.5483641 36.8513779,34.2693897 36.8513779,49.9615244 C36.8513779,52.1482038 37.1309294,54.2771526 37.6600985,56.3220372" id="Fill-32" fill="#766499" mask="url(#mask-16)"></path></g><g id="Group-37"><mask id="mask-18" fill="white"><use xlink:href="#path-17"></use></mask><g id="Clip-36"></g><path d="M69.0010147,48.0010077 C69.422625,48.1367256 69.8371324,48.2830782 70.2516397,48.43095 C74.3683015,46.6149628 85.7776544,41.9904244 99.1073382,39.9850397 C98.9723824,39.6665077 98.8323529,39.3505077 98.6847132,39.0380526 C82.2850368,41.5549115 68.8366324,47.9696103 68.2024412,48.2754821 C68.4688015,48.1838218 68.7321176,48.0876038 69.0010147,48.0010077" id="Fill-35" fill="#C1B9D1" mask="url(#mask-18)"></path></g></g><g id="Group-41" transform="translate(278.000000, 8.000000)"><mask id="mask-20" fill="white"><use xlink:href="#path-19"></use></mask><g id="Clip-40"></g><path d="M4.31832,0.174669528 L147.41568,0.174669528 C149.72304,0.174669528 151.593653,2.06028326 151.593653,4.38614592 L151.593653,91.911412 C151.593653,94.2372747 149.72304,96.1228884 147.41568,96.1228884 L53.28208,96.1228884 L27.7253067,118.704798 L27.7253067,96.1228884 L4.31832,96.1228884 C2.01096,96.1228884 0.140346667,94.2372747 0.140346667,91.911412 L0.140346667,4.38614592 C0.140346667,2.06028326 2.01096,0.174669528 4.31832,0.174669528" id="Fill-39" fill="#FFFFFF" mask="url(#mask-20)"></path></g><g id="Group-72" transform="translate(278.000000, 8.000000)"><g id="Group-44"><mask id="mask-22" fill="white"><use xlink:href="#path-21"></use></mask><g id="Clip-43"></g><path d="M116.264445,89.2997451 L110.055752,86.4692815 C110.206232,85.7420026 110.292365,85.0039983 110.292365,84.2542472 C110.292365,73.8486421 95.3912987,65.412921 77.0099387,65.412921 C58.6285787,65.412921 43.727512,73.8486421 43.727512,84.2542472 C43.727512,85.0039983 43.8136453,85.7420026 43.9641253,86.4692815 L37.755432,89.2997451 C31.889752,91.9739253 27.2527387,97.907582 27.2527387,104.452071 L27.2527387,159.316689 L70.6538053,159.316689 L70.6538053,156.730865 C70.6538053,151.704775 68.8526053,105.736045 65.604872,101.9592 C69.1626853,102.693629 73.0032187,103.095063 77.0099387,103.095063 C80.9670053,103.095063 84.7609253,102.701801 88.281752,101.984736 C85.047192,105.758007 83.2525787,151.7155 83.2525787,156.730355 L83.2525787,159.316689 L125.905805,159.316689 L125.905805,104.452071 C125.905805,97.907582 122.130125,91.9739253 116.264445,89.2997451" id="Fill-42" fill="#9183AD" mask="url(#mask-22)"></path></g><g id="Group-47"><mask id="mask-24" fill="white"><use xlink:href="#path-23"></use></mask><g id="Clip-46"></g><path d="M88.4648107,101.70312 L104.273824,83.7218627 L91.9653707,78.0926009 L91.9653707,78.2187511 L62.0548107,78.2187511 L62.0548107,78.0926009 L49.6652907,83.7591459 L65.442384,101.70312 C68.7980373,105.519803 70.6539573,151.5917 70.6539573,156.722489 L70.6539573,159.316485 L83.2527307,159.316485 L83.2527307,156.721979 C83.2527307,151.5917 85.1091573,105.519803 88.4648107,101.70312" id="Fill-45" fill="#D4CFDF" mask="url(#mask-24)"></path></g><g id="Group-50"><mask id="mask-26" fill="white"><use xlink:href="#path-25"></use></mask><g id="Clip-49"></g><path d="M49.66524,83.6835579 L62.05476,78.0920901 L62.05476,75.3693906 C61.4123067,74.7033991 60.87676,73.9505837 60.4577467,73.1390343 C59.7357467,73.4337253 59.0613733,73.7427167 58.4315867,74.0619227 C50.57724,78.0461245 49.66524,83.6835579 49.66524,83.6835579" id="Fill-48" fill="#BBB1CC" mask="url(#mask-26)"></path></g><g id="Group-53"><mask id="mask-28" fill="white"><use xlink:href="#path-27"></use></mask><g id="Clip-52"></g><polygon id="Fill-51" fill="#BBB1CC" mask="url(#mask-28)" points="91.8845573 75.4246004 91.8845573 75.4246004 91.9043173 75.4108107"></polygon></g><g id="Group-56"><mask id="mask-30" fill="white"><use xlink:href="#path-29"></use></mask><g id="Clip-55"></g><path d="M93.5715547,73.1183498 C93.1510213,73.9375601 92.6129413,74.6980365 91.9654213,75.3691352 L91.9654213,78.0693627 L104.273875,83.6240579 C104.273875,83.6240579 103.214435,77.0892725 93.5715547,73.1183498" id="Fill-54" fill="#BBB1CC" mask="url(#mask-30)"></path></g><g id="Group-59"><mask id="mask-32" fill="white"><use xlink:href="#path-31"></use></mask><g id="Clip-58"></g><path d="M77.2555707,71.6638429 C69.5005307,71.9937742 61.220584,71.9524052 59.147304,73.8053322 C57.0735173,75.6577485 61.2241307,77.744079 61.2241307,77.744079 L81.9022107,77.8084309 L88.8866107,78.6404094 L88.8019973,78.3712549 L91.489864,77.4029116 C91.489864,77.4029116 94.7538107,73.6439416 93.5717573,73.1184009 C86.7028773,70.063727 79.5284773,71.567315 77.2555707,71.6638429" id="Fill-57" fill="#BBB1CC" mask="url(#mask-32)"></path></g><g id="Group-62"><mask id="mask-34" fill="white"><use xlink:href="#path-33"></use></mask><g id="Clip-61"></g><path d="M94.5839253,63.3913 C96.2310987,62.5419567 98.2162187,59.7365189 99.5756053,56.0939953 C101.365659,51.2956906 101.390992,46.8656219 99.6318453,46.198609 C99.3942187,46.1082099 99.1358187,46.0913558 98.8622187,46.1424288 C98.1924053,46.2660253 97.6598987,46.7854373 97.393392,47.4177206 L95.791312,51.2139738 L94.1942987,48.0586863 C93.725632,47.131712 93.611632,46.0627549 93.874592,45.0566176 L94.7845653,41.5724202 C95.993472,36.9446991 92.141792,32.5667249 87.438912,33.2235232 L80.5826987,34.1816519 C79.3849387,34.3486605 78.1785653,34.4324202 76.972192,34.4324202 C75.7658187,34.4324202 74.559952,34.3486605 73.3616853,34.1816519 L66.505472,33.2235232 C61.802592,32.5667249 57.950912,36.9446991 59.1598187,41.5724202 L60.0702987,45.0566176 C60.3332587,46.0627549 60.2192587,47.131712 59.7500853,48.0586863 L58.1535787,51.2139738 L56.5514987,47.4177206 C56.2844853,46.7854373 55.7524853,46.2660253 55.082672,46.1424288 C54.809072,46.0913558 54.550672,46.1082099 54.3130453,46.198609 C52.553392,46.8656219 52.5787253,51.2956906 54.3692853,56.0939953 C55.7281653,59.7365189 57.7132853,62.5419567 59.3604587,63.3913" id="Fill-60" fill="#F1EFF5" mask="url(#mask-34)"></path></g><g id="Group-65"><mask id="mask-36" fill="white"><use xlink:href="#path-35"></use></mask><g id="Clip-64"></g><path d="M55.11216,46.1479446 C55.7693067,46.2812451 56.28864,46.7955498 56.5510933,47.4176185 L58.1531733,51.2138717 L59.7501867,48.0585841 C60.21936,47.1316099 60.33336,46.0626528 60.0704,45.0565155 L59.15992,41.572318 C57.9510133,36.944597 61.8026933,32.5666227 66.5055733,33.223421 L73.3617867,34.1815498 C74.5595467,34.3485584 75.76592,34.432318 76.9722933,34.432318 C78.1786667,34.432318 79.38504,34.3485584 80.5828,34.1815498 L87.4390133,33.223421 C92.1418933,32.5666227 95.9935733,36.944597 94.7846667,41.572318 L93.8741867,45.0565155 C93.6112267,46.0626528 93.7252267,47.1316099 94.1944,48.0585841 L95.7914133,51.2138717 L97.3934933,47.4176185 C97.6559467,46.7955498 98.17528,46.2812451 98.8324267,46.1479446 C99.1065333,46.0922751 99.3649333,46.107597 99.60408,46.1923781 L99.60408,28.3285884 C99.60408,24.5022021 97.7729867,20.9107515 94.6863733,18.6839704 C92.9176,17.4076571 90.8377333,15.9071335 88.7376,14.3923094 C81.7025333,9.31616781 72.24256,9.31616781 65.2074933,14.3917987 L59.2592267,18.6834597 C56.1721067,20.9107515 54.3410133,24.5022021 54.3410133,28.3285884 L54.3410133,46.1923781 C54.58016,46.107597 54.8380533,46.0922751 55.11216,46.1479446" id="Fill-63" fill="#ADA2C2" mask="url(#mask-36)"></path></g><g id="Group-68"><mask id="mask-38" fill="white"><use xlink:href="#path-37"></use></mask><g id="Clip-67"></g><path d="M84.0644107,76.6069395 C82.907184,77.3985704 81.5412107,77.8219652 80.142304,77.8219652 L76.9720907,81.8577506 L73.8018773,77.8219652 C72.4034773,77.8219652 71.0369973,77.3985704 69.8797707,76.6069395 L62.0173173,67.1911283 L62.0173173,78.1100167 C62.0173173,86.4359309 68.7129173,93.1852227 76.9720907,93.1852227 C85.2317707,93.1852227 91.9273707,86.4359309 91.9273707,78.1100167 L91.9273707,75.2626991 L91.9273707,67.1911283 L84.0644107,76.6069395 Z" id="Fill-66" fill="#E4E0EB" mask="url(#mask-38)"></path></g><g id="Group-71"><mask id="mask-40" fill="white"><use xlink:href="#path-39"></use></mask><g id="Clip-70"></g><path d="M94.5839253,63.3951305 L59.3604587,63.3951305 C59.358432,63.394109 59.3564053,63.3925768 59.3543787,63.3915554 C59.8909387,67.6847485 61.804112,73.8313794 68.0229387,77.8247742 C68.8923787,78.3835124 69.6726453,79.077594 70.3272587,79.8814824 C71.4338187,81.2410446 73.0865653,82.0291004 74.8315253,82.0291004 L76.972192,82.0291004 L79.1128587,82.0291004 C80.8578187,82.0291004 82.5105653,81.2410446 83.617632,79.8814824 C84.2717387,79.077594 85.0520053,78.3835124 85.9214453,77.8247742 C92.140272,73.8313794 94.053952,67.6847485 94.590512,63.3910446 C94.5879787,63.3925768 94.585952,63.394109 94.5839253,63.3951305" id="Fill-69" fill="#F1EFF5" mask="url(#mask-40)"></path></g></g><g id="Group-97"><path d="M254.386883,224.837694 L227.511122,211.245386 L227.516706,211.247922 C222.714109,215.221768 217.626706,217.436615 214.583707,218.501953 C212.655561,219.176345 210.646694,219.517598 208.610921,219.517598 C206.57464,219.517598 204.565266,219.176345 202.63915,218.501953 C199.595643,217.436615 194.507733,215.221768 189.704628,211.247922 L162.834451,224.837694 C159.047202,226.753375 156.656564,230.655725 156.656564,234.92316 L156.656564,324.084461 L260.564262,324.084461 L260.564262,234.92316 C260.564262,230.655725 258.174132,226.753375 254.386883,224.837694" id="Fill-73" fill="#766499"></path><path d="M162.834502,224.837694 C161.073888,225.728095 159.620417,227.051528 158.563439,228.637618 L258.657489,228.637618 C257.600511,227.051528 256.147548,225.728095 254.386934,224.837694 L251.91253,223.586265 L165.308398,223.586265 L162.834502,224.837694 Z" id="Fill-75" fill="#AA9EC0"></path><path d="M156.656666,234.923008 L156.656666,237.700695 L260.564364,237.700695 L260.564364,234.923008 C260.564364,234.149738 260.483643,233.389145 260.332864,232.649849 L156.888673,232.649849 C156.737894,233.389145 156.656666,234.149738 156.656666,234.923008" id="Fill-77" fill="#AA9EC0"></path><path d="M222.902202,214.523137 C219.673902,216.503215 216.653241,217.777462 214.583453,218.501547 C212.655815,219.176447 210.646948,219.5177 208.610667,219.5177 C206.574386,219.5177 204.565519,219.176447 202.638896,218.501547 C200.569109,217.777462 197.548447,216.502708 194.31964,214.523137 L183.228991,214.523137 L173.241517,219.573983 L243.979817,219.573983 L233.992851,214.523137 L222.902202,214.523137 Z" id="Fill-79" fill="#AA9EC0"></path><mask id="mask-42" fill="white"><use xlink:href="#path-41"></use></mask><g id="Clip-82"></g><polygon id="Fill-81" fill="#AA9EC0" mask="url(#mask-42)" points="156.657072 246.763822 260.56477 246.763822 260.56477 241.712976 156.657072 241.712976"></polygon><polygon id="Fill-83" fill="#AA9EC0" mask="url(#mask-42)" points="156.657072 255.888405 260.56477 255.888405 260.56477 250.837559 156.657072 250.837559"></polygon><polygon id="Fill-84" fill="#AA9EC0" mask="url(#mask-42)" points="156.657072 265.627548 260.56477 265.627548 260.56477 260.576702 156.657072 260.576702"></polygon><polygon id="Fill-85" fill="#AA9EC0" mask="url(#mask-42)" points="156.657072 274.752638 260.56477 274.752638 260.56477 269.701792 156.657072 269.701792"></polygon><polygon id="Fill-86" fill="#AA9EC0" mask="url(#mask-42)" points="156.657072 284.133288 260.56477 284.133288 260.56477 279.082442 156.657072 279.082442"></polygon><polygon id="Fill-87" fill="#AA9EC0" mask="url(#mask-42)" points="156.657072 293.257871 260.56477 293.257871 260.56477 288.207025 156.657072 288.207025"></polygon><polygon id="Fill-88" fill="#AA9EC0" mask="url(#mask-42)" points="156.657072 302.57311 260.56477 302.57311 260.56477 297.522264 156.657072 297.522264"></polygon><polygon id="Fill-89" fill="#AA9EC0" mask="url(#mask-42)" points="156.657072 311.697694 260.56477 311.697694 260.56477 306.646847 156.657072 306.646847"></polygon><polygon id="Fill-90" fill="#AA9EC0" mask="url(#mask-42)" points="156.657072 320.442487 260.56477 320.442487 260.56477 315.391641 156.657072 315.391641"></polygon><path d="M222.323098,202.928806 L222.323098,201.391901 C218.461221,205.230869 213.783004,207.304246 210.99638,208.27172 C209.421575,208.818333 207.717821,208.818333 206.143015,208.27172 C203.356392,207.304246 198.678682,205.230869 194.816298,201.391901 L194.816298,202.928806 C194.816298,206.455931 192.824692,209.680846 189.669497,211.263894 L189.663405,211.266936 C194.467018,215.208838 199.554928,217.405431 202.597927,218.462148 C204.52455,219.130963 206.533417,219.470188 208.569698,219.470188 C210.605979,219.470188 212.614845,219.130963 214.542484,218.462148 C217.585483,217.405431 222.672885,215.208838 227.475991,211.266936 L227.470406,211.263894 C224.314704,209.680846 222.323098,206.455931 222.323098,202.928806" id="Fill-91" fill="#988BB3" mask="url(#mask-42)"></path><path d="M235.871195,140.380054 C230.672104,129.14305 219.725126,122.801223 207.261218,122.872719 C200.944229,122.909228 196.775209,126.868369 192.177204,130.692632 C187.607122,134.493062 182.663898,138.311747 180.202694,143.891459 C176.201714,152.959759 178.626366,162.598503 182.715174,171.226166 C182.833969,171.134387 182.959872,171.056807 183.098468,171.005086 C183.722399,170.770824 184.471218,170.982269 185.267759,171.548657 C184.903249,170.239423 184.640274,168.887595 184.501171,167.498245 C184.420959,166.697086 184.379837,165.883759 184.379837,165.061304 C184.379837,164.989301 184.379837,164.916791 184.380852,164.844788 C184.40319,162.267899 184.842836,159.793435 185.613485,157.469569 C188.47626,154.308037 191.115658,150.945201 193.475327,147.393738 C192.613804,149.604529 191.496413,151.715428 190.1526,153.671674 C192.862564,150.447773 195.382659,147.065668 197.71136,143.557305 C202.126602,153.635166 209.785882,162.414947 217.939636,170.016822 C212.137429,163.621755 209.19038,155.213143 206.414418,147.040315 C208.316165,151.411191 210.957594,155.459575 214.192494,158.96236 C212.164843,154.755266 210.717972,150.269287 209.905693,145.671247 C214.29809,156.931577 219.725634,163.705927 230.099955,169.924537 C224.578999,163.442762 223.376826,158.630235 221.316177,150.372728 C223.325551,153.411044 225.636484,156.250592 228.204808,158.835595 C226.880286,155.093983 225.819754,151.259579 225.030829,147.369906 C228.818078,150.885875 231.491998,155.599017 232.403273,160.905423 C233.044465,164.639428 232.793674,168.234499 231.870723,171.549671 C232.667263,170.982776 233.417098,170.770317 234.041537,171.005086 C234.616224,171.221095 235.016779,171.80016 235.252848,172.632249 C235.897594,170.938154 236.652505,169.294259 236.948987,168.217766 C237.834878,165.002992 238.505008,161.725342 238.813166,158.402564 C239.391407,152.161136 238.510593,146.08501 235.871195,140.380054" id="Fill-92" fill="#988BB3" mask="url(#mask-42)"></path><path d="M235.252949,172.632097 C235.196597,172.434343 235.130092,172.253321 235.054956,172.085484 C235.047341,172.067737 235.039218,172.050496 235.031096,172.033763 C234.963575,171.889251 234.887424,171.760457 234.805181,171.641297 C234.787412,171.615944 234.770151,171.588056 234.751367,171.56321 C234.673185,171.460276 234.586881,171.373061 234.496515,171.292946 C234.470116,171.270128 234.44727,171.242746 234.420364,171.221957 C234.303091,171.131193 234.177695,171.056148 234.041131,171.004934 C233.4172,170.770672 232.667365,170.982624 231.870316,171.549519 C232.793776,168.234347 233.044567,164.639276 232.403374,160.905778 C231.492099,155.598865 228.818179,150.885722 225.03093,147.369754 C225.819856,151.259427 226.87988,155.094338 228.204909,158.83595 C225.636586,156.250947 223.325653,153.411399 221.316279,150.372576 C223.37642,158.630083 224.5791,163.442609 230.100057,169.924385 C219.725736,163.705775 214.298191,156.931931 209.905795,145.671095 C210.717566,150.269135 212.164437,154.755114 214.192595,158.962208 C210.957695,155.45993 208.315759,151.411039 206.414012,147.04067 C209.190482,155.212991 212.137022,163.622109 217.93923,170.01667 C209.785476,162.415302 202.126704,153.635013 197.711462,143.557153 C195.382253,147.066023 192.862666,150.448128 190.152701,153.672029 C191.496515,151.715783 192.613906,149.604376 193.475429,147.393585 C191.115759,150.945049 188.475854,154.307885 185.613587,157.469417 C184.842937,159.793283 184.403292,162.267746 184.380446,164.844636 C184.379939,164.916639 184.379939,164.989149 184.379939,165.061659 C184.379939,165.884114 184.42106,166.696934 184.501273,167.4986 C184.640375,168.887443 184.903351,170.23927 185.267861,171.549012 C184.47132,170.982624 183.722501,170.770672 183.098569,171.004934 C182.959974,171.057153 182.834071,171.134235 182.715275,171.226013 C181.136916,172.445498 181.290234,177.056721 183.162028,182.026944 C184.68962,186.083948 186.921355,189.208465 188.772843,190.154643 C190.981733,201.729858 201.3591,206.610838 206.143421,208.271974 C207.717719,208.818587 209.421981,208.818587 210.996786,208.271974 C215.7806,206.610838 226.157459,201.729858 228.366857,190.154643 C230.218345,189.208465 232.45008,186.083948 233.977672,182.026944 C235.404744,178.236655 235.829159,174.661359 235.252949,172.632097" id="Fill-93" fill="#BBB1CC" mask="url(#mask-42)"></path><path d="M197.611196,295.259195 C197.611196,283.272246 194.60475,219.700343 189.657465,211.353593 L167.493427,218.536636 C164.08998,219.640003 162.002424,223.083462 162.587264,226.631883 L164.860629,324.084664 L197.228917,324.084664 C197.609673,295.33424 197.611196,295.297225 197.611196,295.259195" id="Fill-94" fill="#7F6DA0" mask="url(#mask-42)"></path><path d="M219.460019,295.259195 C219.460019,283.272246 222.466465,219.700343 227.41375,211.353593 L249.577787,218.536636 C252.981235,219.640003 255.068791,223.083462 254.48395,226.631883 L251.82983,324.084664 L219.46205,324.084664 C219.461542,295.33424 219.460019,295.297225 219.460019,295.259195" id="Fill-95" fill="#7F6DA0" mask="url(#mask-42)"></path><path d="M102.903924,198.438771 L3.99224793,198.438771 C1.78741913,198.438771 -0.000101534829,200.224137 -0.000101534829,202.426308 L-0.000101534829,285.303588 C-0.000101534829,287.505758 1.78741913,289.291124 3.99224793,289.291124 L56.1131216,289.291124 L80.535294,310.673428 L80.535294,289.291124 L102.903924,289.291124 C105.108753,289.291124 106.896274,287.505758 106.896274,285.303588 L106.896274,202.426308 C106.896274,200.224137 105.108753,198.438771 102.903924,198.438771" id="Fill-96" fill="#FFFFFF" mask="url(#mask-42)"></path></g><g id="Group-105" transform="translate(0.000000, 199.000000)"><mask id="mask-44" fill="white"><use xlink:href="#path-43"></use></mask><g id="Clip-99"></g><polygon id="Fill-98" fill="#988BB3" mask="url(#mask-44)" points="33.4641327 153.217009 74.3398294 153.217009 74.3398294 82.9334775 33.4641327 82.9334775"></polygon><path d="M68.9333289,71.8094559 C66.5399261,70.5401225 65.0371393,68.0781405 65.0371393,65.3891315 L65.0371393,65.3119423 C63.360836,66.6493838 61.1046085,67.8077261 58.0570635,68.526645 C55.48349,69.1340685 52.7927033,68.9171315 50.218618,68.3097081 C47.1715848,67.5907892 44.9148455,66.4344649 43.2385422,65.0975279 L43.2385422,65.4027532 C43.2385422,68.1119423 41.7091393,70.589564 39.280419,71.8427532 C39.0413858,71.9249874 38.544381,72.0818883 38.544381,72.0818883 L26.4386559,75.9267171 L32.3095564,79.8512577 C37.2698787,83.868627 42.4047412,86.1151856 45.8382199,87.2921946 C48.497272,88.2033297 51.27149,88.6654559 54.0851204,88.6654559 C56.8972152,88.6654559 59.6709213,88.2033297 62.3325327,87.2921946 C65.7670351,86.1146811 70.9024095,83.8681225 75.8617081,79.8512577 L81.3364379,75.7980685 L69.2281536,71.9517261 L68.9333289,71.8094559 Z" id="Fill-100" fill="#AEA3C3" mask="url(#mask-44)"></path><path d="M44.3573915,153.108692 C44.3573915,141.617593 41.4367848,80.6754667 36.6310408,72.6745297 L15.1006521,79.5600072 C11.7941118,80.6179532 9.76668057,83.9189261 10.3348322,87.3202955 L12.9130123,153.21716 L44.3558559,153.21716 C44.3558559,153.180836 44.3573915,153.145016 44.3573915,153.108692" id="Fill-101" fill="#7F6DA0" mask="url(#mask-44)"></path><path d="M63.8136171,153.108591 C63.8136171,141.617492 66.7342237,80.6753658 71.5399678,72.6744288 L93.0703564,79.5604108 C96.3768967,80.6178523 98.404328,83.9188252 97.8361763,87.3206991 L95.2579962,153.217059 L63.8151526,153.217059 C63.8151526,153.180735 63.8136171,153.14542 63.8136171,153.108591" id="Fill-102" fill="#7F6DA0" mask="url(#mask-44)"></path><path d="M46.3635299,67.0269045 L35.4806104,59.461355 C28.8102028,54.8239495 25.4652739,47.1756613 26.7300512,39.5525982 C27.9743545,32.0511207 30.8760227,22.7667243 37.5029232,15.6062919 C46.5191318,5.86380541 62.6101081,5.86380541 71.6263166,15.6062919 C78.2532171,22.7667243 81.1548853,32.0511207 82.3991886,39.5525982 C83.6639659,47.1756613 80.319037,54.8239495 73.6486294,59.461355 L62.76571,67.0269045 L46.3635299,67.0269045 Z" id="Fill-103" fill="#E2E0DF" mask="url(#mask-44)"></path><path d="M72.7902085,44.8669982 C72.3305687,44.6964757 71.7777725,44.8508541 71.1906825,45.2630342 C71.8202559,43.0321153 72.0183412,40.6256288 71.6707962,38.1273225 L68.8366919,38.1273225 C69.5328057,36.1451243 67.7950806,29.3418811 66.8650521,28.3888721 C66.0425118,34.5019532 62.0895071,38.1273225 62.0895071,38.1273225 L36.3716872,38.1273225 C36.267782,38.8674306 36.2053365,39.6206559 36.1986825,40.3875027 C36.1981706,40.4399712 36.1981706,40.4929441 36.1981706,40.5454126 C36.1981706,41.1432505 36.2283697,41.7345297 36.2877441,42.3172324 C36.3901137,43.3272505 36.5835924,44.3100252 36.8523128,45.2625297 C36.2657346,44.8508541 35.7134502,44.6964757 35.2543223,44.8669982 C33.79709,45.4073225 33.817564,48.9953586 35.3009005,52.8815568 C36.426455,55.8313946 38.0705118,58.1036829 39.4350995,58.7913225 C41.0627773,67.2084757 48.7092796,70.7571604 52.2338673,71.9649441 C53.3942275,72.3624937 54.6497915,72.3624937 55.8101517,71.9649441 C59.3352512,70.7571604 66.9812417,67.2084757 68.6094313,58.7913225 C69.9735071,58.1036829 71.617564,55.8313946 72.7436303,52.8815568 C74.226455,48.9953586 74.2474408,45.4073225 72.7902085,44.8669982" id="Fill-104" fill="#BBB1CC" mask="url(#mask-44)"></path></g><path d="M360.5,268.326665 C332.609374,268.326665 310,245.867862 310,218.163333 C310,190.458803 332.609374,168 360.5,168 C388.390626,168 411,190.458803 411,218.163333 C411,260.477843 373.897866,283 360.5,283 L360.5,268.326665 Z" id="Fill-106" fill="#FFFFFF"></path><g id="Group-129" transform="translate(309.000000, 168.000000)"><g id="Group-110"><mask id="mask-46" fill="white"><use xlink:href="#path-45"></use></mask><g id="Clip-109"></g><path d="M31.3866687,34.5163596 C31.3866687,34.7478509 31.3161313,34.7478509 31.3161313,34.9798509 C31.3161313,35.2118509 31.2491463,35.2118509 31.2491463,35.4438509 C31.2491463,35.6768684 31.2760418,35.6768684 31.2760418,35.9093772 C31.2760418,36.141886 31.7479821,36.141886 31.7479821,36.3749035 C31.7479821,36.5331316 31.7002806,36.6862719 31.7058627,36.8445 C31.7114448,37.0027281 31.2785791,37.185886 31.2892358,37.3436053 C31.2998925,37.5013246 31.4237134,37.6575175 31.4394448,37.8152368 C31.4556836,37.9724474 31.3846388,38.1479737 31.4059522,38.3051842 C31.4272657,38.461886 31.660191,38.5916228 31.6865791,38.7478158 C31.7129672,38.9040088 31.8971761,39.0296754 31.9286388,39.1848509 C31.9469075,39.2733772 32.0752955,39.9703947 32.1889672,40.5809211 C32.238191,40.5529386 32.2853851,40.5203772 32.3381612,40.5000263 C32.7918328,40.3290789 33.3353254,40.4837456 33.9138328,40.8963596 C33.728609,40.2288509 35.4600716,28.3999035 35.4600716,28.3999035 C35.937594,26.4289211 37.5888776,24.9641667 39.5984299,24.729114 L48.7911164,23.6520439 C50.149594,23.493307 51.5212657,23.493307 52.8797433,23.6520439 L62.0719224,24.729114 C64.0819821,24.9641667 65.7327582,26.4289211 66.2107881,28.3999035 C66.2107881,28.3999035 67.9417433,40.2283421 67.7555045,40.8973772 C68.3345194,40.4837456 68.8790269,40.3290789 69.332191,40.5000263 C69.3352358,40.5010439 69.3377731,40.5035877 69.3408179,40.5046053 C69.4590567,39.9027281 69.5879522,39.2423421 69.605206,39.1568684 C69.6366687,39.001693 69.6701612,38.8546579 69.6965493,38.6984649 C69.7229373,38.5427807 69.7645493,38.3967632 69.7858627,38.2395526 C69.8066687,38.0828509 70.3415343,37.9856754 70.3572657,37.8279561 C70.3735045,37.6707456 70.3582806,37.5008158 70.3694448,37.3430965 C70.3801015,37.1848684 70.1395642,37.0088333 70.1446388,36.8506053 C70.1502209,36.6923772 70.3958328,36.5336404 70.3958328,36.3749035 C70.3958328,36.1444298 70.352191,36.1444298 70.352191,35.9144649 C70.352191,35.6839912 70.0715642,35.6839912 70.0715642,35.4535175 C70.0715642,35.2235526 70.1583403,35.2235526 70.1583403,34.9930789 C70.1583403,34.763114 70.1730567,34.763114 70.1730567,34.5331491 C70.1730567,34.3031842 70.2177134,34.3031842 70.2177134,34.0732193 C70.2177134,33.8447807 69.9523104,33.8447807 69.9523104,33.6163421 C69.9523104,33.3873947 69.9421612,33.3873947 69.9421612,33.1589561 C69.9421612,32.9295 70.0385791,32.9295 70.0385791,32.7005526 C70.0385791,32.4705877 70.182191,32.4705877 70.182191,32.240114 C70.182191,32.0096404 70.3044896,32.0096404 70.3044896,31.7786579 C70.3044896,31.548693 69.8523403,31.548693 69.8523403,31.3182193 C69.8523403,31.0887632 70.1304299,31.0887632 70.1304299,30.8587982 C70.1304299,30.6288333 70.3897433,30.6288333 70.3897433,30.3983596 C70.3897433,30.1673772 70.3471164,30.1673772 70.3471164,29.9363947 C70.3471164,29.7054123 70.2654149,29.7054123 70.2654149,29.4749386 C70.2654149,29.2439561 70.080191,29.2439561 70.080191,29.0134825 C70.080191,28.7819912 70.202997,28.7819912 70.202997,28.5505 C70.202997,28.3195175 70.0492358,28.3195175 70.0492358,28.0885351 C70.0492358,27.8575526 70.0563403,27.8575526 70.0563403,27.6265702 C70.0563403,27.3960965 70.2628776,27.3960965 70.2628776,27.1656228 C70.2628776,26.9336228 70.3912657,26.9336228 70.3912657,26.7021316 C70.3912657,26.4701316 69.8553851,26.4701316 69.8553851,26.2381316 C69.8553851,26.005114 70.3004299,26.005114 70.3004299,25.7726053 C70.3004299,25.5395877 69.8939522,25.5395877 69.8939522,25.3070789 C69.8939522,25.1524123 70.3892358,24.990114 70.3841612,24.8364649 C70.3790866,24.6817982 70.074609,24.5388333 70.0644597,24.3851842 C70.0548179,24.2315351 70.1649373,24.0672018 70.1497134,23.9140614 C70.134997,23.7604123 70.2496836,23.5874298 70.2293851,23.4347982 C70.209594,23.2816579 70.1745791,23.1239386 70.1502209,22.9723246 C70.1253552,22.8202018 70.0456836,22.6716404 70.0162507,22.5210439 C69.9863104,22.3694298 69.5235045,22.3129561 69.488997,22.1628684 C69.4544896,22.0122719 69.7670866,21.7797632 69.7280119,21.6312018 C69.6889373,21.4821316 69.4306388,21.3956404 69.386997,21.2480965 C69.3428478,21.1005526 69.4103403,20.9204474 69.3616239,20.7744298 C69.3124,20.6284123 69.3291463,20.4589912 69.2758627,20.3145 C69.2220716,20.1700088 69.2251164,20.0005877 69.1672657,19.8581316 C69.1089075,19.7156754 68.7039522,19.7243246 68.6410269,19.5839035 C68.578609,19.4429737 68.9348478,19.1082018 68.8673552,18.9698158 C68.8003701,18.8314298 68.7765194,18.6630263 68.7049672,18.5266754 C68.6334149,18.3903246 68.1827881,18.4605351 68.1071761,18.3262193 C68.0310567,18.1924123 67.9615343,18.0616579 67.8813552,17.929886 C67.8011761,17.7986228 67.8072657,17.6175 67.7225194,17.4887807 C67.6382806,17.3600614 67.6961313,17.1336579 67.6078328,17.0074825 C67.5195343,16.8818158 67.395206,16.7790439 67.3023403,16.6559211 C67.2099821,16.5327982 66.9186985,16.5679035 66.8222806,16.4478333 C66.7258627,16.3282719 66.8248179,16.0479386 66.7248478,15.9309211 C66.6248776,15.8144123 66.2742209,15.9253246 66.170191,15.8113596 C66.0666687,15.6979035 66.1813552,15.3819561 66.0737731,15.2720614 C65.9666985,15.1621667 65.7023104,15.2150789 65.5911761,15.1082368 C65.4805493,15.0019035 65.5196239,14.7368333 65.4054448,14.6340614 C65.2912657,14.5312895 65.0618925,14.5638509 64.9441612,14.4641316 C64.8269373,14.3654298 64.9106687,14.0179386 64.7898925,13.9227982 C64.6691164,13.8276579 64.5904597,13.6658684 64.4666388,13.5742895 C64.3433254,13.4832193 64.2301612,13.3621316 64.1032955,13.2746228 C63.9769373,13.1876228 63.8531164,13.0782368 63.723206,12.9947982 C63.5943104,12.9118684 63.2619224,13.1499737 63.1299821,13.071114 C62.9980418,12.9922544 62.7920119,13.0527982 62.6570269,12.9780088 C62.5225493,12.9032193 62.5372657,12.5521667 62.4002507,12.4819561 C62.2662806,12.4127632 62.1769672,12.2428333 62.0414746,12.1782193 C61.9054746,12.114114 61.7111164,12.1675351 61.573594,12.1075 C61.4355642,12.0469561 61.1803104,12.274886 61.0412657,12.2194298 C60.901206,12.1634649 60.7814448,12.0744298 60.6398627,12.0235526 C60.4987881,11.9721667 60.4977731,11.5086754 60.3546687,11.4618684 C60.2120716,11.4150614 60.010609,11.5417456 59.8659821,11.4995175 C59.7218627,11.4572895 59.5498328,11.5152895 59.404191,11.4776404 C59.2585493,11.4399912 59.057594,11.6552018 58.9109373,11.6221316 C58.7642806,11.5890614 58.629803,11.5412368 58.4821313,11.5127456 C58.3344597,11.4847632 58.1949075,11.4618684 58.0462209,11.4379561 C57.8980418,11.4145526 57.7757433,11.2517456 57.6265493,11.2329211 C57.4778627,11.2140965 57.3712955,10.7877456 57.221594,10.7729912 C57.0718925,10.7587456 56.9034149,10.9062895 56.753206,10.8966228 C56.602997,10.8869561 56.4431463,11.0772368 56.2929373,11.0721491 C56.1427284,11.0675702 55.9945493,11.0370439 55.8443403,11.0370439 C55.616997,11.0370439 55.616997,10.8518509 55.3891463,10.8518509 C55.1623104,10.8518509 55.1623104,11.2278333 54.9354746,11.2278333 C54.7086388,11.2278333 54.7086388,10.9663246 54.481803,10.9663246 C54.2539522,10.9663246 54.2539522,11.0431491 54.0261015,11.0431491 C53.7987582,11.0431491 53.7987582,10.8864474 53.5714149,10.8864474 C53.3445791,10.8864474 53.3445791,11.161693 53.1172358,11.161693 C52.8904,11.161693 52.8904,10.7597632 52.6635642,10.7597632 C52.4357134,10.7597632 52.4357134,10.762307 52.2078627,10.762307 C51.9795045,10.762307 51.9795045,11.0757105 51.7511463,11.0757105 C51.5222806,11.0757105 51.5222806,11.0579035 51.2934149,11.0579035 C51.0640418,11.0579035 51.0640418,10.7068509 50.8351761,10.7068509 C50.6078328,10.7068509 50.6078328,10.7048158 50.3804896,10.7048158 C50.1531463,10.7048158 50.1531463,11.1321842 49.9263104,11.1321842 C49.6994746,11.1321842 49.6994746,11.2293596 49.4726388,11.2293596 C49.2447881,11.2293596 49.2447881,11.1235351 49.0169373,11.1235351 C48.789594,11.1235351 48.789594,10.9190088 48.5622507,10.9190088 C48.3349075,10.9190088 48.3349075,10.7633246 48.1080716,10.7633246 C47.8812358,10.7633246 47.8812358,10.9622544 47.6544,10.9622544 C47.4265493,10.9622544 47.4265493,10.7175351 47.1986985,10.7175351 C46.9703403,10.7175351 46.9703403,11.1967982 46.7419821,11.1967982 C46.5131164,11.1967982 46.5131164,11.1845877 46.2837433,11.1845877 C46.0548776,11.1845877 46.0548776,10.9887105 45.8260119,10.9887105 C45.675803,10.9887105 45.5347284,11.2858333 45.3845194,11.2904123 C45.2343104,11.2955 45.0607582,10.7836754 44.9105493,10.7933421 C44.7603403,10.8025 44.6375343,11.1713596 44.4878328,11.1856053 C44.3376239,11.1998509 44.2107582,11.3606228 44.0620716,11.3794474 C43.9128776,11.3987807 43.7753552,11.4354123 43.6271761,11.4588158 C43.4784896,11.4827281 43.3358925,11.4878158 43.1882209,11.516307 C43.0405493,11.5442895 42.8304597,11.2537807 42.683803,11.2868509 C42.5371463,11.3199211 42.4422507,11.5605702 42.296609,11.5982193 C42.1509672,11.6358684 41.9078925,11.3204298 41.7637731,11.3626579 C41.6196537,11.404886 41.5577433,11.7223596 41.4151463,11.7691667 C41.2720418,11.8159737 41.1025493,11.7808684 40.9609672,11.8322544 C40.8198925,11.8836404 40.772191,12.1716053 40.6321313,12.2275702 C40.4925791,12.2830263 40.2114448,11.9935351 40.0734149,12.0535702 C39.9358925,12.1136053 39.7658925,12.1156404 39.6298925,12.1802544 C39.4944,12.2448684 39.432997,12.4697456 39.2990269,12.5384298 C39.1620119,12.6086404 39.032609,12.6951316 38.8986388,12.7694123 C38.7641612,12.8442018 38.5434149,12.7750088 38.4114746,12.8533596 C38.2795343,12.9327281 38.3937134,13.4079211 38.2648179,13.4908509 C38.1349075,13.5742895 37.7172657,13.220693 37.5909075,13.307693 C37.4640418,13.3952018 37.3107881,13.4598158 37.1869672,13.550886 C37.0631463,13.6424649 37.1281015,13.9894474 37.0078328,14.0845877 C36.8865493,14.1802368 36.6962507,14.1914298 36.5790269,14.2906404 C36.4612955,14.3898509 36.5653254,14.7403947 36.4511463,14.8436754 C36.3364597,14.9464474 35.9086687,14.7093596 35.7975343,14.8162018 C35.6864,14.9225351 35.862997,15.3203947 35.7554149,15.4307982 C35.6478328,15.540693 35.2418627,15.3682193 35.1378328,15.4816754 C35.033803,15.5951316 35.020609,15.7960965 34.9206388,15.9126053 C34.8201612,16.0296228 34.7917433,16.2082018 34.6953254,16.3282719 C34.5994149,16.4483421 34.5857134,16.6309912 34.4933552,16.7536053 C34.4004896,16.8772368 34.1513254,16.8853772 34.0630269,17.0115526 C33.9747284,17.1372193 34.1975045,17.4719912 34.1132657,17.6007105 C34.0290269,17.7294298 33.7905194,17.7538509 33.7108478,17.885114 C33.6301612,18.0163772 33.6306687,18.1903772 33.5545493,18.324693 C33.4789373,18.4585 33.429206,18.5999386 33.3576537,18.7362895 C33.2861015,18.8726404 33.1749672,18.9825351 33.1079821,19.1209211 C33.040997,19.259307 32.8933254,19.3569912 32.8309075,19.4974123 C32.7684896,19.6383421 32.4086985,19.6556404 32.3503403,19.7980965 C32.2924896,19.9405526 32.3564299,20.1379561 32.3031463,20.2824474 C32.2498627,20.4264298 32.0849373,20.5383596 32.0362209,20.6843772 C31.9875045,20.8303947 32.0976239,21.032886 32.0534746,21.1804298 C32.0098328,21.3279737 31.9352358,21.4704298 31.8956537,21.6195 C31.8565791,21.7680614 31.926609,21.9466404 31.892609,22.0967281 C31.8581015,22.2468158 31.7505194,22.3831667 31.7210866,22.5342719 C31.6911463,22.6848684 31.7642209,22.8558158 31.7393552,23.0079386 C31.7144896,23.1595526 31.5444896,23.2923421 31.524191,23.4454825 C31.5044,23.598114 31.8773851,23.7934825 31.8626687,23.9471316 C31.8479522,24.1002719 31.6495343,24.2330614 31.6393851,24.3872193 C31.6297433,24.5408684 31.395803,24.6853596 31.3907284,24.8395175 C31.3861612,24.9931667 31.5510866,25.1524123 31.5510866,25.3070789 C31.5510866,25.5370439 31.5135343,25.5370439 31.5135343,25.7675175 C31.5135343,25.9979912 31.6779522,25.9979912 31.6779522,26.2284649 C31.6779522,26.4584298 31.5627582,26.4584298 31.5627582,26.6889035 C31.5627582,26.9183596 31.4896836,26.9183596 31.4896836,27.1488333 C31.4896836,27.3787982 31.3856537,27.3787982 31.3856537,27.6087632 C31.3856537,27.8372018 31.8494746,27.8372018 31.8494746,28.0656404 C31.8494746,28.2940789 31.3932657,28.2940789 31.3932657,28.5230263 C31.3932657,28.7519737 31.3125791,28.7519737 31.3125791,28.9814298 C31.3125791,29.2113947 31.5033851,29.2113947 31.5033851,29.4418684 C31.5033851,29.6723421 31.7606687,29.6723421 31.7606687,29.9033246 C31.7606687,30.1332895 31.7053552,30.1332895 31.7053552,30.3632544 C31.7053552,30.5932193 31.7855343,30.5932193 31.7855343,30.8231842 C31.7855343,31.0531491 31.7926388,31.0531491 31.7926388,31.2836228 C31.7926388,31.5146053 31.5617433,31.5146053 31.5617433,31.7455877 C31.5617433,31.9765702 31.5536239,31.9765702 31.5536239,32.2070439 C31.5536239,32.4380263 31.3333851,32.4380263 31.3333851,32.6685 C31.3333851,32.8999912 31.6495343,32.8999912 31.6495343,33.1314825 C31.6495343,33.3624649 31.4957731,33.3624649 31.4957731,33.5934474 C31.4957731,33.8244298 31.660191,33.8244298 31.660191,34.0554123 C31.660191,34.285886 31.3866687,34.285886 31.3866687,34.5163596" id="Fill-108" fill="#766499" mask="url(#mask-46)"></path></g><g id="Group-113"><mask id="mask-48" fill="white"><use xlink:href="#path-47"></use></mask><g id="Clip-112"></g><path d="M69.3321403,40.5000263 C68.8789761,40.3290789 68.3344687,40.4837456 67.7559612,40.8973772 C67.9411851,40.2283421 66.2107373,28.3999035 66.2107373,28.3999035 C65.7327075,26.4289211 64.0814239,24.9641667 62.0718716,24.729114 L52.8796925,23.6520439 C51.5212149,23.493307 50.1495433,23.493307 48.7910657,23.6520439 L39.5988866,24.729114 C37.5888269,24.9641667 35.9375433,26.4289211 35.4600209,28.3999035 C35.4600209,28.3999035 33.7285582,40.2288509 33.9137821,40.8963596 C33.3357821,40.4837456 32.7917821,40.3290789 32.3386179,40.5000263 C30.9024985,41.0413596 30.9233045,44.638886 32.3842896,48.5345526 C33.4941104,51.4915351 35.1144388,53.769307 36.4592149,54.458693 L36.4592149,54.458693 C36.4592149,54.458693 35.8730955,63.9671316 47.2463493,66.6951667 C49.6070657,67.2614298 52.0636925,67.2614298 54.4249164,66.6951667 C65.7976627,63.9671316 65.2115433,54.458693 65.2115433,54.458693 C66.5563194,53.769307 68.1766478,51.4915351 69.2859612,48.5345526 C70.7474537,44.638886 70.7682597,41.0413596 69.3321403,40.5000263" id="Fill-111" fill="#988BB3" mask="url(#mask-48)"></path></g><g id="Group-116"><mask id="mask-50" fill="white"><use xlink:href="#path-49"></use></mask><g id="Clip-115"></g><path d="M60.8227015,63.7703386 L60.8227015,63.698093 C59.2866119,64.945093 57.2176866,66.024707 54.4246119,66.6947596 C52.0633881,67.2615316 49.6072687,67.2615316 47.2460448,66.6947596 C44.4529701,66.024707 42.3840448,64.945093 40.8479552,63.698093 L40.8479552,63.7703386 C40.8479552,66.3411632 40.1090896,69.3373211 37.8178955,70.4912158 L37.8848806,70.5517596 C41.3726716,73.4253035 44.2885522,74.3227772 46.4985522,75.0930579 C47.8976269,75.5809702 49.3565821,75.8277246 50.8353284,75.8277246 C52.3140746,75.8277246 53.7725224,75.5809702 55.1726119,75.0930579 C57.3826119,74.3227772 60.9617463,73.8150228 64.4495373,70.9414789 L63.8020149,70.5258123 C61.5103134,69.3719175 60.8227015,66.3411632 60.8227015,63.7703386" id="Fill-114" fill="#8A7BA8" mask="url(#mask-50)"></path></g><g id="Group-119"><mask id="mask-52" fill="white"><use xlink:href="#path-51"></use></mask><g id="Clip-118"></g><path d="M39.7905045,68.5203351 C39.7905045,68.5203351 42.3354299,71.1323702 50.9739672,71.1323702 C59.611997,71.1323702 61.6580866,68.1703 61.6580866,68.1703 C62.3391015,69.6854228 65.1940866,71.1262649 65.1940866,71.1262649 L83.0166836,79.125686 C87.8051015,81.2747386 90.8869224,86.0434579 90.8869224,91.3031421 L90.8869224,121.84116 L11.0605045,121.84116 L11.0605045,91.3031421 C11.0605045,86.0434579 14.1423254,81.2747386 18.9307433,79.125686 L36.7533403,71.1262649 C36.7533403,71.1262649 38.2478179,70.3860018 39.7905045,68.5203351" id="Fill-117" fill="#766499" mask="url(#mask-52)"></path></g><g id="Group-122"><mask id="mask-54" fill="white"><use xlink:href="#path-53"></use></mask><g id="Clip-121"></g><path d="M16.2428149,95.3820175 C22.1588149,95.3820175 26.9543373,90.573614 26.9543373,84.6428596 C26.9543373,81.6355088 25.7181582,78.9207018 23.7309343,76.9710877 L18.9308448,79.1257368 C14.1424269,81.2742807 11.060606,86.0435088 11.060606,91.303193 L11.060606,94.0393684 C12.5966955,94.8925789 14.3621582,95.3820175 16.2428149,95.3820175" id="Fill-120" fill="#8A7BA8" mask="url(#mask-54)"></path></g><g id="Group-125"><mask id="mask-56" fill="white"><use xlink:href="#path-55"></use></mask><g id="Clip-124"></g><path d="M83.0167851,79.1255333 L78.2166955,76.9708842 C76.2294716,78.9204982 74.9932925,81.6353053 74.9932925,84.6426561 C74.9932925,90.5739193 79.7888149,95.381814 85.7048149,95.381814 C87.5854716,95.381814 89.3509343,94.8928842 90.8870239,94.0391649 L90.8870239,91.3034982 C90.8870239,86.0433053 87.805203,81.274586 83.0167851,79.1255333" id="Fill-123" fill="#8A7BA8" mask="url(#mask-56)"></path></g><g id="Group-128"><mask id="mask-58" fill="white"><use xlink:href="#path-57"></use></mask><g id="Clip-127"></g><polygon id="Fill-126" fill="#E2E0DF" mask="url(#mask-58)" points="50.9737642 71.1314035 50.6469582 71.130386 50.6469582 86.2856842 51.3005701 86.2856842 51.3005701 71.1278421"></polygon></g></g></g></g></svg> 